<svg data-v-0dd9719b="" version="1.0" xmlns="http://www.w3.org/2000/svg" xmlns:xlink="http://www.w3.org/1999/xlink" width="100%" height="100%" viewBox="0 0 340.000000 250.000000" preserveAspectRatio="xMidYMid meet" color-interpolation-filters="sRGB" style="margin: auto;"> <rect data-v-0dd9719b="" x="0" y="0" width="100%" height="100%" fill="#fff" fill-opacity="1" class="background"></rect> <rect data-v-0dd9719b="" x="0" y="0" width="100%" height="100%" fill="url(#watermark)" fill-opacity="1" class="watermarklayer"></rect> <g data-v-0dd9719b="" fill="#333" class="icon-text-wrapper icon-svg-group iconsvg" transform="translate(48.00999450683594,89.0283470155484)"><g class="iconsvg-imagesvg" transform="translate(0,0)"><g><rect fill="#333" fill-opacity="0" stroke-width="2" x="0" y="0" width="60.00000000000001" height="71.94330867276587" class="image-rect"></rect> <svg x="0" y="0" width="60.00000000000001" height="71.94330867276587" filtersec="colorsb447296758" class="image-svg-svg primary" style="overflow: visible;"><svg xmlns="http://www.w3.org/2000/svg" viewBox="0 0.0026149749755859375 83.3800048828125 99.97742462158203"><path d="M49.88 1.48L0 16.48v67l49.86-15c9.8-3 18.66-9.87 24.8-18.49 5.41-7.58 8.71-16.47 8.71-25.11.02-18.41-15.06-28.94-33.49-23.4z" fill="#38128b" opacity=".8"></path><path d="M74.68 50c-6.14-8.62-15-15.56-24.82-18.51L0 16.5v67l49.86 15c18.43 5.55 33.52-5 33.52-23.43 0-8.6-3.31-17.48-8.7-25.07z" fill="#e52093" opacity=".8"></path></svg></svg> <!----></g></g> <g transform="translate(67,7.750402450561523)"><g data-gra="path-name" fill-rule="" class="tp-name iconsvg-namesvg" transform="translate(0,0)"><g transform="scale(1)"><g><path d="M19.26-30.15L19.26-30.15Q21.38-30.15 26.62-31.07 31.86-31.99 33.39-32.85L33.39-32.85Q34.42-33.44 35.41-33.44 36.41-33.44 39.26-31.54 42.12-29.65 42.12-28.53 42.12-27.4 39.82-27.27 37.53-27.13 35.93-26.39 34.34-25.65 33.8-25.65 33.25-25.65 33.25-26.08 33.25-26.5 33.93-27.63 34.6-28.75 34.6-29.32 34.6-29.88 33.7-29.88 32.8-29.88 30.53-29.61 28.26-29.34 25.67-28.78 23.09-28.21 21.85-28.21 20.61-28.21 19.84-28.35L19.84-28.35Q19.53-25.56 18.36-23.67 17.19-21.78 16.27-21.78 15.34-21.78 14.74-22.88 14.13-23.98 14.13-24.7 14.13-25.43 15.21-26.89 16.29-28.35 16.74-30.15 17.19-31.95 17.71-31.95 18.22-31.95 19.26-30.15ZM7.83-31.99L7.83-31.99Q9.04-31.99 10.98-31.63 12.91-31.27 13.63-30.24 14.35-29.2 14.35-28.06 14.35-26.91 13.72-26.19 13.09-25.47 12.24-25.47L12.24-25.47Q10.71-25.47 8.75-28.15 6.79-30.82 6.79-31.5L6.79-31.5Q6.79-31.99 7.83-31.99ZM26.55-25.29L26.55-25.29Q26.55-24.84 25.79-24.39L25.79-24.39Q24.48-23.63 23.22-22.05 21.96-20.47 19.98-19.46 18-18.45 17.28-18.45L17.28-18.45Q16.96-18.45 16.96-18.74 16.96-19.04 17.91-20.11L17.91-20.11Q21.78-24.48 21.78-25.74L21.78-25.74Q21.78-25.92 21.67-26.23 21.55-26.55 21.55-26.91L21.55-26.91Q21.55-27.68 22.39-27.68 23.22-27.68 24.88-26.84 26.55-26.01 26.55-25.29ZM28.35-26.73L28.35-26.73Q29.2-26.73 31.21-26.17 33.21-25.61 33.91-24.73 34.6-23.85 34.6-22.7 34.6-21.55 34.22-21.06 33.84-20.56 33.21-20.56L33.21-20.56Q32.04-20.56 29.83-23.09 27.63-25.61 27.63-26.32L27.63-26.32Q27.63-26.73 28.35-26.73ZM10.71-19.17L10.71-19.17Q10.71-17.91 10.19-17.1 9.67-16.29 8.82-16.29L8.82-16.29Q7.29-16.29 5.47-18.88 3.65-21.46 3.65-22.36L3.65-22.36Q3.65-22.81 4.54-22.81L4.54-22.81Q6.71-22.81 8.71-21.94 10.71-21.06 10.71-19.17ZM27.49-14.85L27.45-14.26Q32.09-10.04 35.12-8.21 38.16-6.39 42.39-4.91L42.39-4.91Q45.05-3.96 45.05-3.38 45.05-2.79 41.42-2.11 37.8-1.44 36.59-1.44 35.37-1.44 34.54-1.87 33.7-2.29 32.67-3.87L32.67-3.87Q30.38-7.25 27.4-11.12L27.4-11.12 27.4-8.1 27.58-0.99Q27.58 1.17 26.89 2.61 26.19 4.05 25.24 4.05 24.3 4.05 23.38 2.65 22.45 1.26 22.45 0.22 22.45-0.81 23.4-3.06L23.4-3.06Q23.85-4.14 23.89-9.76L23.89-9.76Q20.93-5.17 17.01-3.33 13.09-1.48 11.65-1.48L11.65-1.48Q11.21-1.48 11.21-1.71L11.21-1.71Q11.21-2.25 13.23-3.69L13.23-3.69Q19.26-8.05 22.5-14.31L22.5-14.31Q21.55-14.22 19.75-13.72 17.95-13.23 17.12-13.23 16.29-13.23 15.37-14.15 14.45-15.07 14.45-15.34 14.45-15.62 14.92-15.77 15.39-15.93 17.5-15.93 19.62-15.93 23.85-16.79L23.85-16.79Q23.8-18.68 23.45-19.3L23.45-19.3Q22.77-20.52 22.77-21.04 22.77-21.55 23.51-21.55 24.25-21.55 26.35-21.04 28.44-20.52 28.44-19.48L28.44-19.48Q28.44-18.9 27.77-17.46L27.77-17.46Q30.11-17.77 31.66-18.25 33.21-18.72 34.54-18.72 35.87-18.72 37.03-17.57 38.2-16.43 38.2-15.79L38.2-15.79Q38.2-14.8 35.82-14.8L35.82-14.8Q35.14-14.8 34.09-14.92 33.03-15.03 31.3-15.03 29.56-15.03 27.49-14.85L27.49-14.85ZM14.8-19.35L14.8-19.35Q14.8-18.27 13.54-15.21L13.54-15.21Q11.34-9.72 9.81-2.11L9.81-2.11Q9.09 1.48 8.03 1.48 6.97 1.48 5.74-2.27 4.5-6.03 4.5-6.91 4.5-7.79 4.88-8.01 5.26-8.23 6.25-8.41L6.25-8.41Q7.65-8.64 11.79-16.02L11.79-16.02Q13.9-19.75 14.58-19.75L14.58-19.75Q14.8-19.75 14.8-19.35ZM86.27-31.23L86.27-31.23Q86.27-30.69 85.77-29.47 85.28-28.26 85.05-24.57 84.82-20.88 84.82-18.31 84.82-15.75 85.03-9.2 85.23-2.65 85.23-2.52L85.23-2.52Q85.23 0.54 84.62 2.65 84.02 4.77 83.05 4.77 82.08 4.77 80.75 3.01 79.42 1.26 79.42-0.14L79.42-0.14Q79.42-1.17 80.26-3.15 81.09-5.13 81.09-18.68L81.09-18.68Q81.09-25.2 80.89-27.81 80.69-30.42 79.88-31.41L79.88-31.41Q78.62-32.98 78.62-33.75 78.62-34.52 79.65-34.52 80.69-34.52 82.78-33.68 84.87-32.85 85.57-32.38 86.27-31.9 86.27-31.23ZM61.34-21.11L61.34-21.11Q62.23-21.38 62.91-21.38 63.59-21.38 64.73-20.86 65.88-20.34 65.88-19.73 65.88-19.13 64.87-18.63 63.86-18.13 61.2-17.46L61.2-17.46 61.02-12.24Q63.99-13.41 65-13.41 66.02-13.41 66.02-13L66.02-13Q66.02-12.2 63.9-10.98L63.9-10.98Q55.22-5.98 54.13-4.91L54.13-4.91Q53.41-4.18 52.56-4.18 51.7-4.18 49.77-5.76 47.84-7.33 47.84-8.05 47.84-8.78 50.27-8.78 52.7-8.78 57.24-10.66L57.24-10.66 57.28-16.65Q56.07-16.43 54.92-16.43 53.77-16.43 52.4-17.05 51.03-17.68 51.03-18.11 51.03-18.54 52.56-18.65 54.09-18.77 57.33-19.8L57.33-19.8Q57.38-24.7 57.15-26.44 56.92-28.17 56.02-29.07L56.02-29.07Q54.72-30.33 54.72-31.18 54.72-32.04 56.14-32.04 57.55-32.04 60.12-31.05 62.69-30.06 62.69-28.8L62.69-28.8Q62.69-28.26 62.1-27.29 61.52-26.32 61.34-21.11ZM71.59-24.12L71.59-24.12Q71.59-23.63 71.23-23.13L71.23-23.13Q70.56-22.14 70.52-19.26L70.52-19.26Q70.33-13 70.02-11.5 69.7-9.99 68.72-7.38 67.72-4.77 66.53-3.31 65.34-1.84 63.2-0.54 61.06 0.77 60.55 0.77 60.03 0.77 60.03 0.49L60.03 0.49Q60.03-0.14 61.7-2.07 63.36-4 64.33-5.92 65.3-7.83 65.97-10.96 66.64-14.08 66.64-17.37L66.64-17.37Q66.64-23.54 65.75-24.57 64.84-25.61 64.84-26.23 64.84-26.86 65.97-26.86 67.09-26.86 69.34-26.03 71.59-25.2 71.59-24.12ZM78.25-23.85L78.25-23.85Q78.25-23.45 77.83-22.45 77.4-21.46 77.27-19.1 77.13-16.74 77.13-13.28L77.13-13.28 77.17-9.27Q77.17-6.97 76.52-5.56 75.87-4.14 75.13-4.14 74.38-4.14 73.48-5.26 72.58-6.39 72.58-7.27 72.58-8.14 73.08-9.49L73.08-9.49Q73.8-11.47 73.8-17.77L73.8-17.77Q73.8-20.84 73.64-22.16 73.48-23.49 72.83-24.3 72.18-25.11 72.18-25.72 72.18-26.32 73.1-26.32 74.03-26.32 76.14-25.56 78.25-24.79 78.25-23.85ZM111.64-21.02L111.64-21.02Q117.31-21.73 119.61-22.16 121.91-22.59 123.14-23.13 124.38-23.67 125.06-23.67 125.73-23.67 127.39-22.72 129.06-21.78 130.03-21.02 131-20.25 131-19.6 131-18.95 129.91-17.55L129.91-17.55Q129.56-17.05 129.38-15.88 129.19-14.71 128.99-10.21 128.79-5.71 128.2-2.54 127.62 0.63 125.95 2.21 124.29 3.78 123.16 3.78 122.04 3.78 121.48 1.96 120.91 0.14 119.16-1.48 117.41-3.1 117.41-3.51 117.41-3.92 117.94-3.92 118.48-3.92 119.7-3.67 120.91-3.42 121.88-3.42 122.85-3.42 123.34-4.46 123.84-5.49 124.2-8.5 124.56-11.52 124.56-14.2 124.56-16.88 124.45-18.04 124.34-19.21 124.02-19.55 123.7-19.89 122.85-19.89 122-19.89 116.86-19.3L116.86-19.3Q118.84-18.31 118.84-17.5L118.84-17.5Q118.84-16.96 118.01-16.61 117.18-16.25 115.16-14.13L115.16-14.13Q116.78-14.63 117.63-14.63 118.48-14.63 119.52-14.17 120.56-13.72 120.56-13.25 120.56-12.78 119.54-12.42 118.53-12.06 113.81-11.56L113.81-11.56Q113.81-9.76 113.76-9.4L113.76-9.4Q117.27-10.17 118.62-10.17 119.97-10.17 120.78-9.36 121.59-8.55 121.59-8.12 121.59-7.69 121.21-7.49 120.83-7.29 120.06-7.27 119.3-7.25 118.58-7.25L118.58-7.25Q116.55-7.25 113.67-6.84L113.67-6.84Q113.53-2.38 112.7-0.38 111.87 1.62 111.31 1.62 110.75 1.62 110.34-0.56 109.94-2.75 109.94-6.34L109.94-6.34Q108.94-6.21 107.98-5.96 107.01-5.71 106.06-5.71 105.12-5.71 104.06-6.48 103-7.25 103-7.58 103-7.92 105.19-7.99 107.37-8.05 109.94-8.55L109.94-8.55Q109.94-9.95 109.89-10.89L109.89-10.89Q108.27-10.62 107.46-10.62 106.65-10.62 105.5-11.14 104.36-11.65 104.36-11.95 104.36-12.24 106.47-12.49 108.59-12.73 112.28-13.41L112.28-13.41Q114.21-16.25 114.21-17.95L114.21-17.95Q114.21-18.45 114.08-18.95L114.08-18.95Q112.72-18.72 109.94-18.4L109.94-18.4 101.66-17.41Q102.06-9.31 102.06-6.12 102.06-2.92 101.54-1.21 101.03 0.49 100.1 0.49 99.18 0.49 98.08-1.01 96.97-2.52 96.97-3.55 96.97-4.59 97.78-6.79L97.78-6.79Q98.1-7.6 98.1-9.92 98.1-12.24 97.81-14.33 97.52-16.43 97.06-17.14L97.06-17.14Q95.98-18.86 95.98-19.42 95.98-19.98 96.84-19.98 97.69-19.98 99.63-19.53L99.63-19.53Q103.59-19.89 108.5-20.56L108.5-20.56Q109.26-22.99 109.62-24.79L109.62-24.79Q108.41-24.66 107.35-24.66 106.29-24.66 105.23-25.18 104.17-25.7 104.17-26.14 104.17-26.59 105.21-26.68L105.21-26.68Q107.37-26.86 110.16-27.45L110.16-27.45Q110.79-30.51 110.79-31.99 110.79-33.48 110.23-34.42 109.66-35.37 109.66-36.05 109.66-36.72 110.72-36.72 111.78-36.72 114.28-35.66 116.78-34.6 116.78-33.62L116.78-33.62Q116.78-33.12 116.08-32.31 115.38-31.5 114.44-28.66L114.44-28.66Q117.63-29.92 119.07-29.92 120.51-29.92 121.61-29.5 122.72-29.07 122.72-28.53L122.72-28.53Q122.72-27.58 119.52-26.68 116.33-25.79 113.4-25.38L113.4-25.38Q112.72-23.31 111.64-21.02ZM107.01-17.73L107.01-17.73Q107.91-17.73 109.15-17.1 110.38-16.47 110.38-15.12L110.38-15.12Q110.38-14.17 110.05-13.66 109.71-13.14 109.13-13.14L109.13-13.14Q108.18-13.14 107.23-14.56 106.29-15.97 106.29-17.05L106.29-17.05Q106.29-17.73 107.01-17.73ZM165.33-17.46L165.33-17.46Q166.63-17.23 168.23-16.52 169.83-15.79 169.83-14.89L169.83-14.89Q169.83-14.45 169.31-13.68 168.8-12.91 168.64-11.12 168.48-9.31 168.48-7.22 168.48-5.13 168.75-4.18 169.02-3.24 169.58-2.97 170.14-2.7 171.38-2.7 172.62-2.7 174.04-3.15 175.45-3.6 176-4.86 176.53-6.12 176.85-8.14L176.85-8.14Q177.3-11.03 177.93-11.03L177.93-11.03Q178.6-11.03 178.74-7.65L178.74-7.65Q178.88-4.72 180.09-3.15L180.09-3.15Q180.63-2.48 180.63-1.78 180.63-1.08 180.09-0.49 179.55 0.09 177.28 0.85 175 1.62 173.05 1.62 171.09 1.62 168.75 1.19 166.41 0.77 165.65-0.74 164.88-2.25 165.01-6.08L165.01-6.08 165.24-12.42Q165.28-13.68 165.28-14.56 165.28-15.43 165.01-15.75L165.01-15.75Q163.75-9.27 161.69-5.85 159.62-2.43 156.6-0.72 153.59 0.99 152.87 0.99L152.87 0.99Q152.69 0.99 152.69 0.85L152.69 0.85Q152.69 0.45 155.03-1.89 157.37-4.23 158.99-8.05 160.6-11.88 161.73-17.86L161.73-17.86Q161.28-17.82 160.58-17.82 159.88-17.82 158.99-18.22 158.09-18.63 158.09-19.01 158.09-19.39 159.25-19.6 160.43-19.8 162.13-20.2L162.13-20.2Q162.94-25.02 162.94-28.39 162.94-31.77 162.2-32.96 161.46-34.16 161.46-34.7 161.46-35.23 162.31-35.23 163.17-35.23 165.91-34.2 168.66-33.16 168.66-32.17L168.66-32.17Q168.66-31.72 168.05-30.71 167.44-29.7 167.09-28.06 166.72-26.41 165.96-21.38L165.96-21.38Q169.2-22.9 170.59-22.9 171.99-22.9 172.94-22.39 173.88-21.87 173.88-21.31 173.88-20.75 172.55-20.18 171.22-19.62 165.56-18.59L165.56-18.59Q165.42-17.82 165.33-17.46ZM155.84-29.7L155.84-29.7Q155.84-26.95 154.08-26.95L154.08-26.95Q152.59-26.95 150.64-29.47 148.68-31.99 148.68-32.6 148.68-33.21 149.63-33.21 150.57-33.21 152.17-32.96 153.76-32.71 154.8-32.04 155.84-31.36 155.84-29.7ZM172.13-28.71L172.13-28.71Q174.24-28.71 175.14-27.86 176.04-27 176.04-25.31 176.04-23.63 174.64-23.63L174.64-23.63Q173.43-23.63 170.98-25.33 168.53-27.04 168.53-27.65 168.53-28.26 169.65-28.48 170.78-28.71 172.13-28.71ZM157.41-26.5L157.41-26.5Q158.49-26.5 159.37-25.7 160.25-24.88 160.25-24.52L160.25-24.52Q160.25-23.71 157.5-23.54 154.75-23.36 150.75-22.52 146.75-21.69 145.1-21.06 143.46-20.43 142.72-20.43 141.97-20.43 140.42-21.73 138.87-23.04 138.87-23.56 138.87-24.07 140.26-24.07L140.26-24.07 141.97-23.98Q144.31-23.98 148.14-24.55 151.97-25.11 154.13-25.81 156.28-26.5 157.41-26.5ZM146.29-19.04L146.29-19.04Q148.14-19.17 149.67-19.55 151.2-19.93 151.94-20.52 152.69-21.11 153.5-21.11 154.31-21.11 156.22-20.02 158.13-18.95 158.13-18.34 158.13-17.73 157.09-17.1L157.09-17.1Q155.34-16.02 154.8-14.85L154.8-14.85Q155.84-14.26 155.84-13.77L155.84-13.77Q155.84-12.82 152.37-12.46L152.37-12.46Q152.69-12.15 152.69-11.81 152.69-11.47 152.41-11.07 152.15-10.66 152.15-9.4L152.15-9.4 152.28-5Q152.28-3.15 151.9-2.16 151.51-1.17 150.62-0.25 149.72 0.67 149.02 0.67 148.32 0.67 147.96-0.49 147.6-1.67 146.21-3.15 144.81-4.63 144.81-5.02 144.81-5.4 145.24-5.4 145.66-5.4 146.52-5.13 147.38-4.86 147.87-4.86 148.37-4.86 148.52-5.33 148.68-5.8 148.68-6.57L148.68-6.57Q148.68-11.03 148.41-12.01L148.41-12.01Q148.23-12.01 148.09-11.97L148.09-11.97Q147.82-10.62 146.47-10.62L146.47-10.62Q145.53-10.62 145.03-13.14L145.03-13.14Q144.81-14.31 144.27-15.57 143.73-16.83 143.08-17.53 142.43-18.22 142.43-18.68L142.43-18.68Q142.43-19.3 143.57-19.3 144.72-19.3 146.29-19.04ZM151.56-14.71L151.56-14.71Q152.28-16.61 152.28-17.41L152.28-17.41Q152.28-18.04 151.6-18.04L151.6-18.04 147.38-17.32Q147.87-15.03 148.05-13.9L148.05-13.9Q149.94-14.26 151.56-14.71ZM143.73-10.93L143.73-10.93Q144.31-10.93 144.74-9.67 145.17-8.41 145.17-6.91 145.17-5.4 144.07-3.89 142.97-2.38 142.11-2.38 141.25-2.38 140.92-3.44 140.58-4.5 140.58-5.35 140.58-6.21 141.21-6.93 141.84-7.65 142.09-8.1 142.34-8.55 142.74-9.74 143.15-10.93 143.73-10.93ZM157.63-7.33L157.63-7.33Q157.63-5.49 156.42-5.49L156.42-5.49Q155.34-5.49 154.06-7.54 152.78-9.58 152.78-9.99 152.78-10.39 153.54-10.39L153.54-10.39Q157.63-10.39 157.63-7.33Z" transform="translate(-3.6500000953674316, 36.720001220703125)"></path></g> <!----> <!----> <!----> <!----> <!----> <!----> <!----></g></g> <g data-gra="path-slogan" fill-rule="" class="tp-slogan iconsvg-slogansvg" fill="#333" transform="translate(5,47.4900016784668)"><rect x="0" height="1" y="3.9750003814697266" width="25.129180908203125"></rect> <rect height="1" y="3.9750003814697266" width="25.129180908203125" x="141.850830078125"></rect> <g transform="translate(28.129180908203125,0)"><g transform="scale(1)"><path d="M7.17-6.09L7.17-6.09L6.09-6.09Q6-7.73 3.94-7.83L3.94-7.83Q2.02-7.78 2.02-6.33L2.02-6.33Q2.02-5.39 3.05-5.25L3.05-5.25L5.48-4.69Q7.41-4.22 7.41-2.34L7.41-2.34Q7.36 0.05 4.03 0.14L4.03 0.14Q2.20 0.14 1.45-0.61L1.45-0.61Q0.52-1.31 0.56-2.77L0.56-2.77L1.69-2.77Q1.73-0.80 4.03-0.75L4.03-0.75Q6.28-0.80 6.33-2.20L6.33-2.20Q6.52-3.38 4.45-3.75L4.45-3.75L2.67-4.13Q0.84-4.64 0.84-6.19L0.84-6.19Q0.98-8.72 3.84-8.81L3.84-8.81Q7.08-8.81 7.17-6.09ZM10.03-5.06L14.53-5.06L14.53-8.58L15.70-8.58L15.70 0L14.53 0L14.53-3.98L10.03-3.98L10.03 0L8.86 0L8.86-8.58L10.03-8.58L10.03-5.06ZM18.80-1.03L23.95-1.03L23.95 0L17.63 0L17.63-8.58L23.86-8.58L23.86-7.59L18.80-7.59L18.80-4.92L23.48-4.92L23.48-3.89L18.80-3.89L18.80-1.03ZM26.86-8.58L31.17-1.64L31.17-8.58L32.30-8.58L32.30 0L30.98 0L26.63-6.94L26.58-6.94L26.58 0L25.45 0L25.45-8.58L26.86-8.58ZM34.92-1.03L40.22-1.03L40.22 0L33.47 0L33.47-0.94L38.72-7.59L33.84-7.59L33.84-8.58L40.22-8.58L40.22-7.59L34.92-1.03ZM42.52-5.06L47.02-5.06L47.02-8.58L48.19-8.58L48.19 0L47.02 0L47.02-3.98L42.52-3.98L42.52 0L41.34 0L41.34-8.58L42.52-8.58L42.52-5.06ZM51.28-1.03L56.44-1.03L56.44 0L50.11 0L50.11-8.58L56.34-8.58L56.34-7.59L51.28-7.59L51.28-4.92L55.97-4.92L55.97-3.89L51.28-3.89L51.28-1.03ZM59.34-8.58L63.66-1.64L63.66-8.58L64.78-8.58L64.78 0L63.47 0L59.11-6.94L59.06-6.94L59.06 0L57.94 0L57.94-8.58L59.34-8.58ZM71.30-8.58L75.61-1.64L75.61-8.58L76.73-8.58L76.73 0L75.42 0L71.06-6.94L71.02-6.94L71.02 0L69.89 0L69.89-8.58L71.30-8.58ZM84.19 0L83.34-2.48L79.88-2.48L78.98 0L77.81 0L81.05-8.58L82.36-8.58L85.45 0L84.19 0ZM81.61-7.31L80.25-3.52L82.92-3.52L81.66-7.31L81.61-7.31ZM87.89-8.58L92.20-1.64L92.20-8.58L93.33-8.58L93.33 0L92.02 0L87.66-6.94L87.61-6.94L87.61 0L86.48 0L86.48-8.58L87.89-8.58ZM94.41-1.92L94.41-2.77L95.48-2.77L95.48-2.16Q95.48-0.75 96.80-0.75L96.80-0.75Q98.16-0.75 98.16-2.25L98.16-2.25L98.16-8.58L99.33-8.58L99.33-2.30Q99.28 0.09 96.84 0.14L96.84 0.14Q94.55 0.09 94.41-1.92L94.41-1.92ZM101.30-8.58L102.47-8.58L102.47 0L101.30 0L101.30-8.58ZM110.11-3.19L110.11-8.58L111.28-8.58L111.28-3.05Q111.14 0.05 107.77 0.14L107.77 0.14Q104.63 0.05 104.48-2.86L104.48-2.86L104.48-8.58L105.66-8.58L105.66-3.19Q105.70-0.84 107.81-0.80L107.81-0.80Q110.11-0.84 110.11-3.19L110.11-3.19Z" transform="translate(-0.5602678571428572, 8.8125)"></path></g></g></g></g></g><defs v-gra="od"></defs></svg>